<svg width="1440" height="1024" viewBox="0 0 1440 1024" fill="none" xmlns="http://www.w3.org/2000/svg">
<rect width="1440" height="1024" fill="#F5F5F5"/>
<rect width="1440" height="1024" fill="white"/>
<g clip-path="url(#clip0_0_1)">
<path d="M710.816 674L745.801 693.392L731.257 719.631L696.272 700.239L710.816 674Z" fill="white"/>
<mask id="mask0_0_1" style="mask-type:luminance" maskUnits="userSpaceOnUse" x="696" y="674" width="42" height="41">
<path d="M710.816 674L737.055 688.544L722.511 714.783L696.272 700.239L710.816 674Z" fill="white"/>
</mask>
<g mask="url(#mask0_0_1)">
<path fill-rule="evenodd" clip-rule="evenodd" d="M696.79 700.09L716.202 710.851L710.64 690.925L723.817 698.249L710.97 674.521L696.795 700.093L696.79 700.09Z" fill="#CE0000" stroke="#000063" stroke-width="1.61719"/>
<path fill-rule="evenodd" clip-rule="evenodd" d="M709.515 698.187L707.876 697.881L708.4 699.498L706.99 698.596L706.846 700.271L705.888 698.916L705.101 700.396L704.732 698.791L703.428 699.85L703.703 698.241L702.078 698.72L702.957 697.352L701.255 697.172L702.611 696.249L701.092 695.447L702.714 695.12L701.613 693.806L703.252 694.112L702.723 692.492L704.127 693.391L704.277 691.719L705.24 693.077L706.026 691.597L706.396 693.202L707.7 692.143L707.419 693.749L709.05 693.273L708.166 694.639L709.873 694.821L708.512 695.742L710.036 696.546L708.414 696.873L709.515 698.187ZM713.101 687.801L712.284 687.911L712.44 688.305C713.374 688.208 714.268 687.873 715.036 687.333C714.523 688.475 712.169 690.366 709.541 688.943C709.06 688.684 708.635 688.333 708.29 687.909C707.946 687.485 707.689 686.997 707.534 686.473C707.379 685.949 707.329 685.4 707.387 684.857C707.446 684.314 707.611 683.788 707.874 683.309C707.869 684.526 707.937 685.153 708.477 686.088L708.843 685.996L708.552 685.239L709.357 685.444L709.33 684.598L710.039 685.059L710.356 684.27L710.792 685.007L711.38 684.428L711.535 685.238L712.263 684.951L712.101 685.799L712.938 685.714L712.455 686.405L713.231 686.721L712.513 687.207L713.101 687.801Z" fill="white"/>
</g>
</g>
<g clip-path="url(#clip1_0_1)">
<path d="M176 708.385L210.874 688.795L225.567 714.951L190.693 734.541L176 708.385Z" fill="white"/>
<mask id="mask1_0_1" style="mask-type:luminance" maskUnits="userSpaceOnUse" x="176" y="693" width="41" height="42">
<path d="M176 708.385L202.156 693.693L216.848 719.848L190.693 734.541L176 708.385Z" fill="white"/>
</mask>
<g mask="url(#mask1_0_1)">
<path fill-rule="evenodd" clip-rule="evenodd" d="M190.838 734.022L210.189 723.152L190.311 717.423L203.464 710.055L176.524 708.528L190.843 734.02L190.838 734.022Z" fill="#CE0000" stroke="#000063" stroke-width="1.61719"/>
<path fill-rule="evenodd" clip-rule="evenodd" d="M195.9 722.193L194.779 723.428L196.431 723.831L194.923 724.557L196.273 725.56L194.617 725.663L195.463 727.11L193.903 726.582L194.12 728.247L192.895 727.168L192.449 728.803L191.746 727.336L190.699 728.69L190.625 727.052L189.146 727.923L189.719 726.371L188.023 726.618L189.144 725.384L187.488 724.984L188.99 724.26L187.646 723.255L189.307 723.149L188.46 721.702L190.021 722.23L189.804 720.564L191.023 721.647L191.474 720.009L192.172 721.478L193.224 720.121L193.293 721.763L194.778 720.889L194.205 722.44L195.9 722.193ZM188.945 713.688L188.609 714.441L189.027 714.515C189.435 713.669 189.619 712.733 189.562 711.795C190.265 712.832 190.638 715.828 188.047 717.317C187.574 717.591 187.052 717.768 186.51 717.839C185.969 717.909 185.418 717.872 184.891 717.729C184.364 717.586 183.871 717.34 183.439 717.005C183.007 716.67 182.647 716.253 182.377 715.778C183.41 716.42 183.979 716.692 185.059 716.724L185.173 716.364L184.376 716.214L184.973 715.637L184.239 715.216L185.003 714.854L184.498 714.17L185.354 714.186L185.171 713.382L185.941 713.675L186.079 712.905L186.716 713.488L187.084 712.731L187.417 713.504L188.094 713.01L188.13 713.876L188.945 713.688Z" fill="white"/>
</g>
</g>
<g clip-path="url(#clip2_0_1)">
<path d="M394 253.385L428.874 233.795L443.567 259.951L408.693 279.541L394 253.385Z" fill="white"/>
<mask id="mask2_0_1" style="mask-type:luminance" maskUnits="userSpaceOnUse" x="394" y="238" width="41" height="42">
<path d="M394 253.385L420.156 238.693L434.848 264.848L408.693 279.541L394 253.385Z" fill="white"/>
</mask>
<g mask="url(#mask2_0_1)">
<path fill-rule="evenodd" clip-rule="evenodd" d="M408.838 279.022L428.189 268.152L408.311 262.423L421.464 255.055L394.524 253.528L408.843 279.02L408.838 279.022Z" fill="#CE0000" stroke="#000063" stroke-width="1.61719"/>
<path fill-rule="evenodd" clip-rule="evenodd" d="M413.901 267.193L412.779 268.428L414.431 268.831L412.923 269.557L414.273 270.56L412.617 270.663L413.463 272.11L411.903 271.582L412.12 273.248L410.895 272.168L410.449 273.803L409.746 272.336L408.699 273.69L408.625 272.052L407.146 272.923L407.719 271.371L406.023 271.618L407.144 270.384L405.488 269.984L406.99 269.261L405.646 268.255L407.307 268.149L406.46 266.702L408.021 267.23L407.804 265.564L409.023 266.647L409.474 265.009L410.172 266.478L411.224 265.121L411.293 266.763L412.778 265.889L412.205 267.44L413.901 267.193ZM406.945 258.688L406.609 259.441L407.027 259.515C407.435 258.669 407.619 257.733 407.562 256.795C408.265 257.832 408.638 260.828 406.047 262.317C405.574 262.591 405.052 262.768 404.51 262.839C403.969 262.909 403.418 262.872 402.891 262.729C402.364 262.586 401.871 262.34 401.439 262.005C401.008 261.67 400.647 261.253 400.377 260.778C401.41 261.42 401.979 261.692 403.059 261.724L403.173 261.364L402.376 261.214L402.973 260.637L402.239 260.216L403.003 259.854L402.498 259.17L403.354 259.186L403.171 258.382L403.941 258.675L404.079 257.905L404.716 258.488L405.084 257.731L405.417 258.504L406.094 258.01L406.13 258.876L406.945 258.688Z" fill="white"/>
</g>
</g>
<g clip-path="url(#clip3_0_1)">
<path d="M117 103.385L151.874 83.7951L166.567 109.951L131.693 129.541L117 103.385Z" fill="white"/>
<mask id="mask3_0_1" style="mask-type:luminance" maskUnits="userSpaceOnUse" x="117" y="88" width="41" height="42">
<path d="M117 103.385L143.156 88.6926L157.848 114.848L131.693 129.541L117 103.385Z" fill="white"/>
</mask>
<g mask="url(#mask3_0_1)">
<path fill-rule="evenodd" clip-rule="evenodd" d="M131.838 129.022L151.189 118.152L131.311 112.423L144.464 105.055L117.524 103.528L131.843 129.02L131.838 129.022Z" fill="#CE0000" stroke="#000063" stroke-width="1.61719"/>
<path fill-rule="evenodd" clip-rule="evenodd" d="M136.9 117.193L135.779 118.428L137.431 118.831L135.923 119.557L137.273 120.56L135.617 120.663L136.463 122.11L134.903 121.582L135.12 123.248L133.895 122.168L133.449 123.803L132.746 122.336L131.699 123.69L131.625 122.052L130.146 122.923L130.719 121.371L129.023 121.618L130.144 120.384L128.488 119.984L129.99 119.261L128.646 118.255L130.307 118.149L129.46 116.702L131.021 117.23L130.804 115.564L132.023 116.647L132.474 115.009L133.172 116.478L134.224 115.121L134.293 116.763L135.778 115.889L135.205 117.44L136.9 117.193ZM129.945 108.688L129.609 109.441L130.027 109.515C130.435 108.669 130.619 107.733 130.562 106.795C131.265 107.832 131.638 110.828 129.047 112.317C128.574 112.591 128.052 112.768 127.51 112.839C126.969 112.909 126.418 112.872 125.891 112.729C125.364 112.586 124.871 112.34 124.439 112.005C124.007 111.67 123.647 111.253 123.377 110.778C124.41 111.42 124.979 111.692 126.059 111.724L126.173 111.364L125.376 111.214L125.973 110.637L125.239 110.216L126.003 109.854L125.498 109.17L126.354 109.186L126.171 108.382L126.941 108.675L127.079 107.905L127.716 108.488L128.084 107.731L128.417 108.504L129.094 108.01L129.13 108.876L129.945 108.688Z" fill="white"/>
</g>
</g>
<g clip-path="url(#clip4_0_1)">
<path d="M1147.84 886.086L1182.83 905.479L1168.29 931.717L1133.3 912.325L1147.84 886.086Z" fill="white"/>
<mask id="mask4_0_1" style="mask-type:luminance" maskUnits="userSpaceOnUse" x="1133" y="886" width="42" height="41">
<path d="M1147.84 886.086L1174.08 900.631L1159.54 926.869L1133.3 912.325L1147.84 886.086Z" fill="white"/>
</mask>
<g mask="url(#mask4_0_1)">
<path fill-rule="evenodd" clip-rule="evenodd" d="M1133.82 912.176L1153.23 922.937L1147.67 903.011L1160.85 910.336L1148 886.607L1133.82 912.179L1133.82 912.176Z" fill="#CE0000" stroke="#000063" stroke-width="1.61719"/>
<path fill-rule="evenodd" clip-rule="evenodd" d="M1146.54 910.273L1144.9 909.967L1145.43 911.584L1144.02 910.682L1143.87 912.357L1142.92 911.003L1142.13 912.483L1141.76 910.877L1140.46 911.937L1140.73 910.328L1139.11 910.807L1139.99 909.438L1138.28 909.258L1139.64 908.335L1138.12 907.533L1139.74 907.206L1138.64 905.893L1140.28 906.199L1139.75 904.579L1141.16 905.478L1141.31 903.806L1142.27 905.163L1143.05 903.683L1143.42 905.288L1144.73 904.229L1144.45 905.835L1146.08 905.359L1145.19 906.725L1146.9 906.908L1145.54 907.828L1147.06 908.632L1145.44 908.959L1146.54 910.273ZM1150.13 899.887L1149.31 899.997L1149.47 900.392C1150.4 900.295 1151.3 899.96 1152.06 899.419C1151.55 900.562 1149.2 902.452 1146.57 901.029C1146.09 900.77 1145.66 900.419 1145.32 899.995C1144.97 899.571 1144.72 899.083 1144.56 898.559C1144.41 898.036 1144.36 897.486 1144.42 896.943C1144.47 896.4 1144.64 895.874 1144.9 895.395C1144.9 896.612 1144.97 897.239 1145.51 898.175L1145.87 898.083L1145.58 897.326L1146.39 897.53L1146.36 896.685L1147.07 897.145L1147.38 896.356L1147.82 897.093L1148.41 896.515L1148.56 897.324L1149.29 897.037L1149.13 897.886L1149.97 897.801L1149.48 898.491L1150.26 898.807L1149.54 899.293L1150.13 899.887Z" fill="white"/>
</g>
</g>
<g clip-path="url(#clip5_0_1)">
<path d="M412 512.385L446.874 492.795L461.567 518.951L426.693 538.541L412 512.385Z" fill="white"/>
<mask id="mask5_0_1" style="mask-type:luminance" maskUnits="userSpaceOnUse" x="412" y="497" width="41" height="42">
<path d="M412 512.385L438.156 497.693L452.848 523.848L426.693 538.541L412 512.385Z" fill="white"/>
</mask>
<g mask="url(#mask5_0_1)">
<path fill-rule="evenodd" clip-rule="evenodd" d="M426.838 538.022L446.189 527.152L426.311 521.423L439.464 514.055L412.524 512.528L426.843 538.02L426.838 538.022Z" fill="#CE0000" stroke="#000063" stroke-width="1.61719"/>
<path fill-rule="evenodd" clip-rule="evenodd" d="M431.901 526.193L430.779 527.428L432.431 527.831L430.923 528.557L432.273 529.56L430.617 529.663L431.463 531.11L429.903 530.582L430.12 532.248L428.895 531.168L428.449 532.803L427.746 531.336L426.699 532.69L426.625 531.052L425.146 531.923L425.719 530.371L424.023 530.618L425.144 529.384L423.488 528.984L424.99 528.261L423.646 527.255L425.307 527.149L424.46 525.702L426.021 526.23L425.804 524.564L427.023 525.647L427.474 524.009L428.172 525.478L429.224 524.121L429.293 525.763L430.778 524.889L430.205 526.44L431.901 526.193ZM424.945 517.688L424.609 518.441L425.027 518.515C425.435 517.669 425.619 516.733 425.562 515.795C426.265 516.832 426.638 519.828 424.047 521.317C423.574 521.591 423.052 521.768 422.51 521.839C421.969 521.909 421.418 521.872 420.891 521.729C420.364 521.586 419.871 521.34 419.439 521.005C419.008 520.67 418.647 520.253 418.377 519.778C419.41 520.42 419.979 520.692 421.059 520.724L421.173 520.364L420.376 520.214L420.973 519.637L420.239 519.216L421.003 518.854L420.498 518.17L421.354 518.186L421.171 517.382L421.941 517.675L422.079 516.905L422.716 517.488L423.084 516.731L423.417 517.504L424.094 517.01L424.13 517.876L424.945 517.688Z" fill="white"/>
</g>
</g>
<g clip-path="url(#clip6_0_1)">
<path d="M1052 558.385L1086.87 538.795L1101.57 564.951L1066.69 584.541L1052 558.385Z" fill="white"/>
<mask id="mask6_0_1" style="mask-type:luminance" maskUnits="userSpaceOnUse" x="1052" y="543" width="41" height="42">
<path d="M1052 558.385L1078.16 543.693L1092.85 569.848L1066.69 584.541L1052 558.385Z" fill="white"/>
</mask>
<g mask="url(#mask6_0_1)">
<path fill-rule="evenodd" clip-rule="evenodd" d="M1066.84 584.022L1086.19 573.152L1066.31 567.423L1079.46 560.055L1052.52 558.528L1066.84 584.02L1066.84 584.022Z" fill="#CE0000" stroke="#000063" stroke-width="1.61719"/>
<path fill-rule="evenodd" clip-rule="evenodd" d="M1071.9 572.193L1070.78 573.428L1072.43 573.831L1070.92 574.557L1072.27 575.56L1070.62 575.663L1071.46 577.11L1069.9 576.582L1070.12 578.248L1068.9 577.168L1068.45 578.803L1067.75 577.336L1066.7 578.69L1066.63 577.052L1065.15 577.923L1065.72 576.371L1064.02 576.618L1065.14 575.384L1063.49 574.984L1064.99 574.261L1063.65 573.255L1065.31 573.149L1064.46 571.702L1066.02 572.23L1065.8 570.564L1067.02 571.647L1067.47 570.009L1068.17 571.478L1069.22 570.121L1069.29 571.763L1070.78 570.889L1070.2 572.44L1071.9 572.193ZM1064.95 563.688L1064.61 564.441L1065.03 564.515C1065.43 563.669 1065.62 562.733 1065.56 561.795C1066.27 562.832 1066.64 565.828 1064.05 567.317C1063.57 567.591 1063.05 567.768 1062.51 567.839C1061.97 567.909 1061.42 567.872 1060.89 567.729C1060.36 567.586 1059.87 567.34 1059.44 567.005C1059.01 566.67 1058.65 566.253 1058.38 565.778C1059.41 566.42 1059.98 566.692 1061.06 566.724L1061.17 566.364L1060.38 566.214L1060.97 565.637L1060.24 565.216L1061 564.854L1060.5 564.17L1061.35 564.186L1061.17 563.382L1061.94 563.675L1062.08 562.905L1062.72 563.488L1063.08 562.731L1063.42 563.504L1064.09 563.01L1064.13 563.876L1064.95 563.688Z" fill="white"/>
</g>
</g>
<g clip-path="url(#clip7_0_1)">
<path d="M1328.84 305.086L1363.83 324.479L1349.29 350.717L1314.3 331.325L1328.84 305.086Z" fill="white"/>
<mask id="mask7_0_1" style="mask-type:luminance" maskUnits="userSpaceOnUse" x="1314" y="305" width="42" height="41">
<path d="M1328.84 305.086L1355.08 319.631L1340.54 345.869L1314.3 331.325L1328.84 305.086Z" fill="white"/>
</mask>
<g mask="url(#mask7_0_1)">
<path fill-rule="evenodd" clip-rule="evenodd" d="M1314.82 331.176L1334.23 341.937L1328.67 322.011L1341.85 329.336L1329 305.607L1314.82 331.179L1314.82 331.176Z" fill="#CE0000" stroke="#000063" stroke-width="1.61719"/>
<path fill-rule="evenodd" clip-rule="evenodd" d="M1327.54 329.273L1325.9 328.967L1326.43 330.584L1325.02 329.682L1324.87 331.357L1323.92 330.003L1323.13 331.483L1322.76 329.877L1321.46 330.937L1321.73 329.328L1320.11 329.807L1320.99 328.438L1319.28 328.258L1320.64 327.335L1319.12 326.533L1320.74 326.206L1319.64 324.893L1321.28 325.198L1320.75 323.579L1322.16 324.478L1322.31 322.806L1323.27 324.163L1324.05 322.683L1324.42 324.288L1325.73 323.229L1325.45 324.835L1327.08 324.359L1326.19 325.725L1327.9 325.908L1326.54 326.828L1328.06 327.632L1326.44 327.959L1327.54 329.273ZM1331.13 318.887L1330.31 318.997L1330.47 319.392C1331.4 319.294 1332.3 318.96 1333.06 318.419C1332.55 319.562 1330.2 321.452 1327.57 320.029C1327.09 319.77 1326.66 319.419 1326.32 318.995C1325.97 318.571 1325.72 318.083 1325.56 317.559C1325.41 317.036 1325.36 316.486 1325.42 315.943C1325.47 315.4 1325.64 314.874 1325.9 314.395C1325.9 315.612 1325.97 316.239 1326.51 317.175L1326.87 317.083L1326.58 316.326L1327.39 316.53L1327.36 315.685L1328.07 316.145L1328.38 315.356L1328.82 316.093L1329.41 315.515L1329.56 316.324L1330.29 316.037L1330.13 316.886L1330.97 316.801L1330.48 317.491L1331.26 317.807L1330.54 318.293L1331.13 318.887Z" fill="white"/>
</g>
</g>
<g clip-path="url(#clip8_0_1)">
<path d="M160.845 349.086L195.83 368.479L181.285 394.717L146.301 375.325L160.845 349.086Z" fill="white"/>
<mask id="mask8_0_1" style="mask-type:luminance" maskUnits="userSpaceOnUse" x="146" y="349" width="42" height="41">
<path d="M160.845 349.086L187.084 363.631L172.539 389.869L146.301 375.325L160.845 349.086Z" fill="white"/>
</mask>
<g mask="url(#mask8_0_1)">
<path fill-rule="evenodd" clip-rule="evenodd" d="M146.818 375.176L166.231 385.937L160.668 366.011L173.845 373.336L160.998 349.607L146.823 375.179L146.818 375.176Z" fill="#CE0000" stroke="#000063" stroke-width="1.61719"/>
<path fill-rule="evenodd" clip-rule="evenodd" d="M159.544 373.273L157.904 372.967L158.428 374.584L157.019 373.682L156.874 375.357L155.917 374.003L155.13 375.483L154.76 373.877L153.456 374.937L153.732 373.328L152.106 373.807L152.985 372.438L151.283 372.258L152.639 371.335L151.12 370.533L152.742 370.206L151.641 368.893L153.281 369.198L152.752 367.579L154.156 368.478L154.306 366.806L155.268 368.163L156.055 366.683L156.425 368.288L157.729 367.229L157.448 368.835L159.079 368.359L158.194 369.725L159.902 369.908L158.541 370.828L160.064 371.632L158.443 371.959L159.544 373.273ZM163.13 362.887L162.312 362.997L162.469 363.392C163.403 363.294 164.297 362.96 165.064 362.419C164.552 363.562 162.197 365.452 159.57 364.029C159.088 363.77 158.663 363.419 158.319 362.995C157.974 362.571 157.717 362.083 157.562 361.559C157.407 361.036 157.357 360.486 157.416 359.943C157.474 359.4 157.64 358.874 157.902 358.395C157.898 359.612 157.966 360.239 158.505 361.175L158.871 361.083L158.581 360.326L159.385 360.53L159.358 359.685L160.068 360.145L160.385 359.356L160.82 360.093L161.409 359.515L161.563 360.324L162.291 360.037L162.129 360.886L162.967 360.801L162.484 361.491L163.26 361.807L162.541 362.293L163.13 362.887Z" fill="white"/>
</g>
</g>
<g clip-path="url(#clip9_0_1)">
<path d="M636.845 52.0862L671.83 71.4786L657.285 97.7172L622.301 78.3248L636.845 52.0862Z" fill="white"/>
<mask id="mask9_0_1" style="mask-type:luminance" maskUnits="userSpaceOnUse" x="622" y="52" width="42" height="41">
<path d="M636.845 52.0862L663.084 66.6305L648.539 92.8691L622.301 78.3248L636.845 52.0862Z" fill="white"/>
</mask>
<g mask="url(#mask9_0_1)">
<path fill-rule="evenodd" clip-rule="evenodd" d="M622.818 78.1764L642.231 88.9369L636.668 69.0113L649.846 76.3357L636.998 52.6068L622.823 78.1792L622.818 78.1764Z" fill="#CE0000" stroke="#000063" stroke-width="1.61719"/>
<path fill-rule="evenodd" clip-rule="evenodd" d="M635.544 76.2731L633.904 75.9673L634.428 77.5842L633.019 76.6824L632.874 78.3574L631.917 77.0027L631.13 78.4826L630.76 76.8775L629.456 77.9367L629.732 76.3276L628.106 76.8066L628.986 75.4382L627.283 75.2583L628.639 74.335L627.12 73.5334L628.742 73.2064L627.641 71.8928L629.281 72.1985L628.752 70.5788L630.156 71.4778L630.306 69.8056L631.268 71.1631L632.055 69.6832L632.425 71.2884L633.729 70.2291L633.448 71.8354L635.079 71.3592L634.194 72.7248L635.902 72.9076L634.541 73.828L636.065 74.6324L634.443 74.9595L635.544 76.2731ZM639.13 65.8873L638.312 65.9968L638.469 66.3916C639.403 66.2945 640.297 65.9596 641.064 65.4188C640.552 66.5615 638.197 68.4521 635.57 67.029C635.088 66.7703 634.663 66.4188 634.319 65.995C633.974 65.5711 633.717 65.0832 633.562 64.5595C633.407 64.0357 633.357 63.4864 633.416 62.9433C633.474 62.4002 633.64 61.874 633.902 61.3952C633.898 62.612 633.966 63.2391 634.505 64.1747L634.871 64.0828L634.581 63.3255L635.385 63.5302L635.358 62.6845L636.068 63.1449L636.385 62.3558L636.82 63.0929L637.409 62.5147L637.563 63.3238L638.291 63.0374L638.129 63.8856L638.967 63.8006L638.484 64.4908L639.26 64.807L638.541 65.2932L639.13 65.8873Z" fill="white"/>
</g>
</g>
<g clip-path="url(#clip10_0_1)">
<path d="M1299 673.59L1333.87 654L1348.57 680.156L1313.69 699.746L1299 673.59Z" fill="white"/>
<mask id="mask10_0_1" style="mask-type:luminance" maskUnits="userSpaceOnUse" x="1299" y="658" width="41" height="42">
<path d="M1299 673.59L1325.16 658.898L1339.85 685.053L1313.69 699.746L1299 673.59Z" fill="white"/>
</mask>
<g mask="url(#mask10_0_1)">
<path fill-rule="evenodd" clip-rule="evenodd" d="M1313.84 699.227L1333.19 688.357L1313.31 682.628L1326.46 675.26L1299.52 673.733L1313.84 699.225L1313.84 699.227Z" fill="#CE0000" stroke="#000063" stroke-width="1.61719"/>
<path fill-rule="evenodd" clip-rule="evenodd" d="M1318.9 687.398L1317.78 688.633L1319.43 689.036L1317.92 689.762L1319.27 690.765L1317.62 690.868L1318.46 692.315L1316.9 691.787L1317.12 693.452L1315.9 692.373L1315.45 694.008L1314.75 692.541L1313.7 693.895L1313.63 692.257L1312.15 693.128L1312.72 691.576L1311.02 691.823L1312.14 690.589L1310.49 690.188L1311.99 689.465L1310.65 688.46L1312.31 688.354L1311.46 686.907L1313.02 687.435L1312.8 685.769L1314.02 686.852L1314.47 685.214L1315.17 686.683L1316.22 685.326L1316.29 686.968L1317.78 686.093L1317.2 687.645L1318.9 687.398ZM1311.95 678.893L1311.61 679.646L1312.03 679.72C1312.43 678.874 1312.62 677.938 1312.56 677C1313.27 678.037 1313.64 681.033 1311.05 682.522C1310.57 682.796 1310.05 682.973 1309.51 683.044C1308.97 683.114 1308.42 683.077 1307.89 682.934C1307.36 682.791 1306.87 682.545 1306.44 682.21C1306.01 681.875 1305.65 681.458 1305.38 680.983C1306.41 681.625 1306.98 681.897 1308.06 681.929L1308.17 681.569L1307.38 681.419L1307.97 680.842L1307.24 680.421L1308 680.058L1307.5 679.374L1308.35 679.391L1308.17 678.587L1308.94 678.88L1309.08 678.11L1309.72 678.693L1310.08 677.936L1310.42 678.709L1311.09 678.215L1311.13 679.081L1311.95 678.893Z" fill="white"/>
</g>
</g>
<g clip-path="url(#clip11_0_1)">
<path d="M373 893.385L407.874 873.795L422.567 899.951L387.693 919.541L373 893.385Z" fill="white"/>
<mask id="mask11_0_1" style="mask-type:luminance" maskUnits="userSpaceOnUse" x="373" y="878" width="41" height="42">
<path d="M373 893.385L399.156 878.693L413.848 904.848L387.693 919.541L373 893.385Z" fill="white"/>
</mask>
<g mask="url(#mask11_0_1)">
<path fill-rule="evenodd" clip-rule="evenodd" d="M387.838 919.022L407.189 908.152L387.311 902.423L400.464 895.055L373.524 893.528L387.843 919.02L387.838 919.022Z" fill="#CE0000" stroke="#000063" stroke-width="1.61719"/>
<path fill-rule="evenodd" clip-rule="evenodd" d="M392.901 907.193L391.779 908.428L393.431 908.831L391.923 909.557L393.273 910.56L391.617 910.663L392.463 912.11L390.903 911.582L391.12 913.248L389.895 912.168L389.449 913.803L388.746 912.336L387.699 913.69L387.625 912.052L386.146 912.923L386.719 911.371L385.023 911.618L386.144 910.384L384.488 909.984L385.99 909.261L384.646 908.255L386.307 908.149L385.46 906.702L387.021 907.23L386.804 905.564L388.023 906.647L388.474 905.009L389.172 906.478L390.224 905.121L390.293 906.763L391.778 905.889L391.205 907.44L392.901 907.193ZM385.945 898.688L385.609 899.441L386.027 899.515C386.435 898.669 386.619 897.733 386.562 896.795C387.265 897.832 387.638 900.828 385.047 902.317C384.574 902.591 384.052 902.768 383.51 902.839C382.969 902.909 382.418 902.872 381.891 902.729C381.364 902.586 380.871 902.34 380.439 902.005C380.008 901.67 379.647 901.253 379.377 900.778C380.41 901.42 380.979 901.692 382.059 901.724L382.173 901.364L381.376 901.214L381.973 900.637L381.239 900.216L382.003 899.854L381.498 899.17L382.354 899.186L382.171 898.382L382.941 898.675L383.079 897.905L383.716 898.488L384.084 897.731L384.417 898.504L385.094 898.01L385.13 898.876L385.945 898.688Z" fill="white"/>
</g>
</g>
<g clip-path="url(#clip12_0_1)">
<path d="M1168.84 73.0862L1203.83 92.4786L1189.29 118.717L1154.3 99.3248L1168.84 73.0862Z" fill="white"/>
<mask id="mask12_0_1" style="mask-type:luminance" maskUnits="userSpaceOnUse" x="1154" y="73" width="42" height="41">
<path d="M1168.84 73.0862L1195.08 87.6305L1180.54 113.869L1154.3 99.3248L1168.84 73.0862Z" fill="white"/>
</mask>
<g mask="url(#mask12_0_1)">
<path fill-rule="evenodd" clip-rule="evenodd" d="M1154.82 99.1764L1174.23 109.937L1168.67 90.0113L1181.85 97.3357L1169 73.6068L1154.82 99.1792L1154.82 99.1764Z" fill="#CE0000" stroke="#000063" stroke-width="1.61719"/>
<path fill-rule="evenodd" clip-rule="evenodd" d="M1167.54 97.2731L1165.9 96.9673L1166.43 98.5842L1165.02 97.6824L1164.87 99.3574L1163.92 98.0027L1163.13 99.4826L1162.76 97.8775L1161.46 98.9367L1161.73 97.3276L1160.11 97.8066L1160.99 96.4382L1159.28 96.2583L1160.64 95.335L1159.12 94.5334L1160.74 94.2064L1159.64 92.8928L1161.28 93.1985L1160.75 91.5788L1162.16 92.4778L1162.31 90.8056L1163.27 92.1631L1164.05 90.6832L1164.42 92.2884L1165.73 91.2291L1165.45 92.8354L1167.08 92.3592L1166.19 93.7248L1167.9 93.9076L1166.54 94.828L1168.06 95.6324L1166.44 95.9595L1167.54 97.2731ZM1171.13 86.8873L1170.31 86.9968L1170.47 87.3916C1171.4 87.2945 1172.3 86.9596 1173.06 86.4188C1172.55 87.5615 1170.2 89.4521 1167.57 88.029C1167.09 87.7703 1166.66 87.4188 1166.32 86.995C1165.97 86.5711 1165.72 86.0832 1165.56 85.5595C1165.41 85.0357 1165.36 84.4864 1165.42 83.9433C1165.47 83.4002 1165.64 82.874 1165.9 82.3952C1165.9 83.612 1165.97 84.2391 1166.51 85.1747L1166.87 85.0828L1166.58 84.3255L1167.39 84.5302L1167.36 83.6845L1168.07 84.1449L1168.38 83.3558L1168.82 84.0929L1169.41 83.5147L1169.56 84.3238L1170.29 84.0374L1170.13 84.8856L1170.97 84.8006L1170.48 85.4908L1171.26 85.807L1170.54 86.2932L1171.13 86.8873Z" fill="white"/>
</g>
</g>
<g clip-path="url(#clip13_0_1)">
<path d="M999.816 254L1034.8 273.392L1020.26 299.631L985.272 280.239L999.816 254Z" fill="white"/>
<mask id="mask13_0_1" style="mask-type:luminance" maskUnits="userSpaceOnUse" x="985" y="254" width="42" height="41">
<path d="M999.816 254L1026.05 268.544L1011.51 294.783L985.272 280.239L999.816 254Z" fill="white"/>
</mask>
<g mask="url(#mask13_0_1)">
<path fill-rule="evenodd" clip-rule="evenodd" d="M985.79 280.09L1005.2 290.851L999.64 270.925L1012.82 278.249L999.97 254.521L985.795 280.093L985.79 280.09Z" fill="#CE0000" stroke="#000063" stroke-width="1.61719"/>
<path fill-rule="evenodd" clip-rule="evenodd" d="M998.515 278.187L996.876 277.881L997.4 279.498L995.99 278.596L995.846 280.271L994.888 278.916L994.101 280.396L993.732 278.791L992.428 279.85L992.703 278.241L991.078 278.72L991.957 277.352L990.255 277.172L991.611 276.249L990.092 275.447L991.714 275.12L990.613 273.807L992.252 274.112L991.723 272.493L993.127 273.392L993.277 271.719L994.24 273.077L995.026 271.597L995.396 273.202L996.7 272.143L996.419 273.749L998.05 273.273L997.166 274.639L998.873 274.821L997.512 275.742L999.036 276.546L997.414 276.873L998.515 278.187ZM1002.1 267.801L1001.28 267.911L1001.44 268.305C1002.37 268.208 1003.27 267.873 1004.04 267.333C1003.52 268.475 1001.17 270.366 998.541 268.943C998.06 268.684 997.635 268.333 997.29 267.909C996.946 267.485 996.689 266.997 996.534 266.473C996.379 265.949 996.329 265.4 996.387 264.857C996.446 264.314 996.611 263.788 996.874 263.309C996.869 264.526 996.937 265.153 997.477 266.088L997.843 265.997L997.552 265.239L998.357 265.444L998.33 264.598L999.039 265.059L999.356 264.27L999.792 265.007L1000.38 264.428L1000.53 265.238L1001.26 264.951L1001.1 265.799L1001.94 265.714L1001.46 266.405L1002.23 266.721L1001.51 267.207L1002.1 267.801Z" fill="white"/>
</g>
</g>
<g clip-path="url(#clip14_0_1)">
<path d="M797 886H837V916H797V886Z" fill="white"/>
<mask id="mask14_0_1" style="mask-type:luminance" maskUnits="userSpaceOnUse" x="797" y="886" width="30" height="30">
<path d="M797 886H827V916H797V886Z" fill="white"/>
</mask>
<g mask="url(#mask14_0_1)">
<path fill-rule="evenodd" clip-rule="evenodd" d="M797.381 915.619H819.576L805.051 900.889L820.127 900.906L797.387 886.381V915.619H797.381Z" fill="#CE0000" stroke="#000063" stroke-width="1.61719"/>
<path fill-rule="evenodd" clip-rule="evenodd" d="M807.588 907.785L806.006 908.312L807.248 909.473L805.578 909.367L806.264 910.902L804.77 910.182L804.799 911.857L803.697 910.633L803.07 912.191L802.531 910.65L801.342 911.857L801.447 910.234L799.871 910.902L800.609 909.438L798.893 909.473L800.152 908.4L798.553 907.785L800.135 907.258L798.887 906.098L800.551 906.203L799.871 904.668L801.371 905.389L801.342 903.713L802.443 904.938L803.07 903.379L803.604 904.92L804.799 903.713L804.687 905.336L806.27 904.668L805.525 906.133L807.248 906.098L805.988 907.17L807.588 907.785ZM805.689 896.963L805.027 897.455L805.355 897.725C806.125 897.187 806.745 896.461 807.154 895.615C807.26 896.863 806.117 899.658 803.129 899.688C802.583 899.694 802.041 899.593 801.534 899.39C801.027 899.186 800.565 898.884 800.176 898.501C799.786 898.118 799.477 897.662 799.264 897.158C799.052 896.655 798.942 896.115 798.939 895.568C799.525 896.635 799.889 897.15 800.814 897.707L801.09 897.449L800.469 896.928L801.271 896.717L800.838 895.99L801.682 896.049L801.576 895.205L802.314 895.639L802.549 894.848L803.076 895.48L803.574 894.877L803.844 895.697L804.535 895.217L804.447 896.055L805.279 895.955L804.887 896.729L805.689 896.963Z" fill="white"/>
</g>
</g>
<g clip-path="url(#clip15_0_1)">
<path d="M696 380H736V410H696V380Z" fill="white"/>
<mask id="mask15_0_1" style="mask-type:luminance" maskUnits="userSpaceOnUse" x="696" y="380" width="30" height="30">
<path d="M696 380H726V410H696V380Z" fill="white"/>
</mask>
<g mask="url(#mask15_0_1)">
<path fill-rule="evenodd" clip-rule="evenodd" d="M696.381 409.619H718.576L704.051 394.889L719.127 394.906L696.387 380.381V409.619H696.381Z" fill="#CE0000" stroke="#000063" stroke-width="1.61719"/>
<path fill-rule="evenodd" clip-rule="evenodd" d="M706.588 401.785L705.006 402.312L706.248 403.473L704.578 403.367L705.264 404.902L703.77 404.182L703.799 405.857L702.697 404.633L702.07 406.191L701.531 404.65L700.342 405.857L700.447 404.234L698.871 404.902L699.609 403.438L697.893 403.473L699.152 402.4L697.553 401.785L699.135 401.258L697.887 400.098L699.551 400.203L698.871 398.668L700.371 399.389L700.342 397.713L701.443 398.938L702.07 397.379L702.604 398.92L703.799 397.713L703.687 399.336L705.27 398.668L704.525 400.133L706.248 400.098L704.988 401.17L706.588 401.785ZM704.689 390.963L704.027 391.455L704.355 391.725C705.125 391.187 705.745 390.461 706.154 389.615C706.26 390.863 705.117 393.658 702.129 393.688C701.583 393.694 701.041 393.593 700.534 393.39C700.027 393.186 699.565 392.884 699.176 392.501C698.786 392.118 698.477 391.662 698.264 391.158C698.052 390.655 697.942 390.115 697.939 389.568C698.525 390.635 698.889 391.15 699.814 391.707L700.09 391.449L699.469 390.928L700.271 390.717L699.838 389.99L700.682 390.049L700.576 389.205L701.314 389.639L701.549 388.848L702.076 389.48L702.574 388.877L702.844 389.697L703.535 389.217L703.447 390.055L704.279 389.955L703.887 390.729L704.689 390.963Z" fill="white"/>
</g>
</g>
<defs>
<clipPath id="clip0_0_1">
<rect width="40" height="30" fill="white" transform="translate(710.816 674) rotate(29)"/>
</clipPath>
<clipPath id="clip1_0_1">
<rect width="40" height="30" fill="white" transform="translate(176 708.385) rotate(-29.3244)"/>
</clipPath>
<clipPath id="clip2_0_1">
<rect width="40" height="30" fill="white" transform="translate(394 253.385) rotate(-29.3244)"/>
</clipPath>
<clipPath id="clip3_0_1">
<rect width="40" height="30" fill="white" transform="translate(117 103.385) rotate(-29.3244)"/>
</clipPath>
<clipPath id="clip4_0_1">
<rect width="40" height="30" fill="white" transform="translate(1147.84 886.086) rotate(29)"/>
</clipPath>
<clipPath id="clip5_0_1">
<rect width="40" height="30" fill="white" transform="translate(412 512.385) rotate(-29.3244)"/>
</clipPath>
<clipPath id="clip6_0_1">
<rect width="40" height="30" fill="white" transform="translate(1052 558.385) rotate(-29.3244)"/>
</clipPath>
<clipPath id="clip7_0_1">
<rect width="40" height="30" fill="white" transform="translate(1328.84 305.086) rotate(29)"/>
</clipPath>
<clipPath id="clip8_0_1">
<rect width="40" height="30" fill="white" transform="translate(160.845 349.086) rotate(29)"/>
</clipPath>
<clipPath id="clip9_0_1">
<rect width="40" height="30" fill="white" transform="translate(636.845 52.0862) rotate(29)"/>
</clipPath>
<clipPath id="clip10_0_1">
<rect width="40" height="30" fill="white" transform="translate(1299 673.59) rotate(-29.3244)"/>
</clipPath>
<clipPath id="clip11_0_1">
<rect width="40" height="30" fill="white" transform="translate(373 893.385) rotate(-29.3244)"/>
</clipPath>
<clipPath id="clip12_0_1">
<rect width="40" height="30" fill="white" transform="translate(1168.84 73.0862) rotate(29)"/>
</clipPath>
<clipPath id="clip13_0_1">
<rect width="40" height="30" fill="white" transform="translate(999.816 254) rotate(29)"/>
</clipPath>
<clipPath id="clip14_0_1">
<rect width="40" height="30" fill="white" transform="translate(797 886)"/>
</clipPath>
<clipPath id="clip15_0_1">
<rect width="40" height="30" fill="white" transform="translate(696 380)"/>
</clipPath>
</defs>
</svg>
